<svg fill="#546e7a" xmlns="http://www.w3.org/2000/svg"  viewBox="0 0 30 30" width="50px" height="50px"><path d="M 21.033203 3.9882812 A 1.0001 1.0001 0 0 0 20.142578 4.4863281 L 8.1425781 24.486328 A 1.0001 1.0001 0 1 0 9.8574219 25.513672 L 21.857422 5.5136719 A 1.0001 1.0001 0 0 0 21.033203 3.9882812 z M 9 5 C 6.8026661 5 5 6.8026661 5 9 L 5 11 C 5 13.197334 6.8026661 15 9 15 A 1.0001 1.0001 0 0 0 9.3613281 14.925781 C 11.383036 14.732672 13 13.069461 13 11 L 13 9 C 13 6.9290771 11.381155 5.2633537 9.3574219 5.0722656 A 1.0001 1.0001 0 0 0 9 5 z M 9 7 C 10.116666 7 11 7.8833339 11 9 L 11 11 C 11 12.116666 10.116666 13 9 13 C 7.8833339 13 7 12.116666 7 11 L 7 9 C 7 7.8833339 7.8833339 7 9 7 z M 21 15 C 18.802666 15 17 16.802666 17 19 L 17 21 C 17 23.070923 18.618845 24.736646 20.642578 24.927734 A 1.0001 1.0001 0 0 0 21 25 A 1.0001 1.0001 0 0 0 21.361328 24.925781 C 23.383036 24.732671 25 23.069461 25 21 L 25 19 C 25 16.802666 23.197334 15 21 15 z M 21 17 C 22.116666 17 23 17.883334 23 19 L 23 21 C 23 22.116666 22.116666 23 21 23 C 19.883334 23 19 22.116666 19 21 L 19 19 C 19 17.883334 19.883334 17 21 17 z"/></svg>